<svg xmlns="http://www.w3.org/2000/svg" width="199.765" height="147.144" viewBox="0 0 199.765 147.144">
  <path id="Path_1" data-name="Path 1" d="M447.942,415.088c.925,2.992,1.156,6.608,1.716,8.7,1.819,6.8,1.2,4.441,1.2,4.441l1.744,6.1,1.839,8.712-1.159-4.309,2.63,8.47v2.574h0l2.942-.858s2.777-.759,3.855-1.029,9.157-1.616,9.157-1.616l6.195-1.347,4.7-.79h4.291l5.016-1.1h11.581l11.476-.621h10.42l10.154.621,8.234,1.1,7.926.79,13.16,2.275,2.452-7.6.981-2.82-1.839,5.639.858-2.82,2.972-12.45,1.2-5.08,1.767-5.962v-1.638l7.541-2.132,5.117-3.232,5.117-2.424,4.579-4.04,4.579-4.309,3.771-5.656,3.771-6.464,1.616-5.925v-7.541l-1.616-6.464-2.155-5.925-1.188-3.039-.428-.8-2.111-2.684-1.66-2.1-5.925-4.842-6.195-2.963-4.065-1.48-4.823-.674H573.4l-.786-7.354-2.177-5.035-1.378-4.037-1.349-2.207L566.4,321.04l-4.04-2.693-2.963-3.5-4.848-3.5-4.579-1.616-4.324-2.155-2.409-1.885v.54l-7.275-1.716-8.615-.709H516.3l-5.387,1.885-4.377.54-2.894,1.345-5.387,2.155-2.507,2.507-7.6-4.168-8.207-.494-8.956,1.352-5.394,2.419a18.5,18.5,0,0,0-4.773,1.616,13.7,13.7,0,0,0-3.808,2.585l-4.045,3.678L448.8,324l-2.7,3.923-3.057,7.657h-7.272l-8.08,2.693-4.848,3.5-5.117,6.733-3.232,5.117-2.424,8.349-1.347,9.427v8.888L413,391.061l3.379,5.392,6.464,7.272,4.848,4.376,3.7,1.594,6.267,2.649,5.387,1.616Z" transform="translate(-410.227 -303.303)" fill="none" stroke="#707070" stroke-width="1"/>
</svg>
